<svg aria-hidden="true" style="position: absolute; width: 0; height: 0; overflow: hidden;" version="1.1" xmlns="http://www.w3.org/2000/svg" xmlns:xlink="http://www.w3.org/1999/xlink">
<defs>
<symbol id="icon-header-burger" viewBox="0 0 32 32">
<path fill="#f5f6f7" style="fill: var(--color1, #f5f6f7)" d="M16 32c8.837 0 16-7.163 16-16s-7.163-16-16-16c-8.837 0-16 7.163-16 16s7.163 16 16 16z"></path>
<path fill="#000" style="fill: var(--color2, #000)" d="M8.8 11.2v1.44h14.4v-1.44h-14.4zM8.8 15.52v1.44h14.4v-1.44h-14.4zM8.8 21.28v-1.44h14.4v1.44h-14.4z"></path>
</symbol>
<symbol id="icon-header-logo" viewBox="0 0 181 32">
<path fill="#fff" style="fill: var(--color3, #fff)" d="M139.253 7.741c2.201 0 3.956-1.755 3.956-3.922 0-2.133-1.754-3.819-3.887-3.819s-3.853 1.755-3.853 3.888c0 2.167 1.686 3.853 3.784 3.853zM67.314 30.379h-6.262v-26.353h6.365v7.225c0 0 2.821-2.408 6.502-2.408 6.227 0 9.908 5.264 9.908 11.009 0 5.883-3.75 11.044-9.702 11.044-2.787 0-4.851-0.791-6.812-2.718v2.202zM47.394 30.895c-6.502 0-10.975-3.956-10.975-11.044 0-6.399 4.576-11.009 10.803-11.009 6.090 0 10.39 4.025 10.39 11.56l0.001 0.183c0.002 0.107 0.004 0.204 0.007 0.296 0.007 0.258 0.014 0.483-0.008 0.793h-14.862c0.55 2.511 2.546 3.716 4.954 3.716 1.979 0 3.315-1.315 4.384-2.677l0.192-0.248c0 0 3.12 1.799 4.583 2.678l0.405 0.246c-1.858 3.303-5.436 5.505-9.874 5.505zM8.242 30.379l-8.051-21.124h6.743l4.197 11.697 3.853-11.697h5.126l4.060 11.766 4.163-11.766h6.64l-7.947 21.124h-5.539l-3.922-11.353-3.784 11.353h-5.539zM47.153 14.209c1.995 0 3.096 0.963 3.853 2.993h-8.016c0.791-1.961 1.995-2.993 4.163-2.993zM72.474 14.759c2.89 0 4.989 2.271 4.989 4.954 0 2.993-1.583 5.505-4.713 5.505-3.337 0-5.505-2.099-5.505-5.367 0-3.062 2.236-5.092 5.229-5.092zM97.658 31.101c-6.468 0-11.423-5.298-11.423-11.181 0-6.33 5.057-11.078 11.56-11.078 6.399 0 11.387 4.61 11.387 10.975 0 6.434-4.645 11.285-11.525 11.285zM97.761 14.863c2.993 0 5.058 2.133 5.058 4.851 0 3.303-1.927 5.333-5.092 5.333-2.924 0-5.092-2.202-5.092-5.023 0-2.89 2.030-5.161 5.126-5.161zM125.25 30.379h-5.711l-8.841-21.124h7.156l4.61 12.351 4.335-12.351h6.744l-8.292 21.124zM142.487 9.255h-6.399v21.124h6.399v-21.124zM145.927 19.92c0 5.883 4.954 11.181 11.422 11.181 6.881 0 11.526-4.851 11.526-11.285 0-6.365-4.989-10.975-11.388-10.975-6.502 0-11.56 4.748-11.56 11.078zM162.509 19.713c0-2.718-2.064-4.851-5.057-4.851-3.096 0-5.127 2.271-5.127 5.161 0 2.821 2.168 5.023 5.092 5.023 3.165 0 5.092-2.030 5.092-5.333z"></path>
<path fill="#fff" style="fill: var(--color3, #fff)" d="M175.136 22.759c2.168 0 3.956 1.789 3.956 3.957s-1.788 3.956-3.956 3.956c-2.168 0-3.957-1.789-3.957-3.956s1.789-3.957 3.957-3.957z"></path>
</symbol>
<symbol id="icon-header-logo-2" viewBox="0 0 49 32">
<path fill="#ffd723" style="fill: var(--color4, #ffd723)" d="M32.578 27.097c-1.156 1.926-3.947 1.926-5.103 0l-16.113-26.856h32.075c2.313 0 3.742 2.523 2.552 4.507l-13.41 22.349z"></path>
<path fill="#fff" style="fill: var(--color3, #fff)" d="M16.113 27.097c1.156 1.926 3.947 1.926 5.103 0l16.113-26.856h-32.075c-2.313 0-3.742 2.523-2.552 4.507l13.41 22.349z"></path>
<path fill="#f6f6f6" style="fill: var(--color5, #f6f6f6)" d="M11.361 0.241h25.969l-12.983 21.641-12.985-21.641z"></path>
</symbol>
<symbol id="icon-google-plus" viewBox="0 0 32 32">
<path d="M10.181 14.294v3.494h5.775c-0.231 1.5-1.744 4.394-5.775 4.394-3.475 0-6.313-2.881-6.313-6.431s2.838-6.431 6.313-6.431c1.981 0 3.3 0.844 4.056 1.569l2.762-2.662c-1.775-1.656-4.075-2.662-6.819-2.662-5.631 0.006-10.181 4.556-10.181 10.188s4.55 10.181 10.181 10.181c5.875 0 9.775-4.131 9.775-9.95 0-0.669-0.075-1.181-0.163-1.688h-9.613z"></path>
<path d="M32 14h-3v-3h-3v3h-3v3h3v3h3v-3h3z"></path>
</symbol>
<symbol id="icon-facebook" viewBox="0 0 32 32">
<path d="M19 6h5v-6h-5c-3.86 0-7 3.14-7 7v3h-4v6h4v16h6v-16h5l1-6h-6v-3c0-0.542 0.458-1 1-1z"></path>
</symbol>
<symbol id="icon-twitter" viewBox="0 0 32 32">
<path d="M32 7.075c-1.175 0.525-2.444 0.875-3.769 1.031 1.356-0.813 2.394-2.1 2.887-3.631-1.269 0.75-2.675 1.3-4.169 1.594-1.2-1.275-2.906-2.069-4.794-2.069-3.625 0-6.563 2.938-6.563 6.563 0 0.512 0.056 1.012 0.169 1.494-5.456-0.275-10.294-2.888-13.531-6.862-0.563 0.969-0.887 2.1-0.887 3.3 0 2.275 1.156 4.287 2.919 5.463-1.075-0.031-2.087-0.331-2.975-0.819 0 0.025 0 0.056 0 0.081 0 3.181 2.263 5.838 5.269 6.437-0.55 0.15-1.131 0.231-1.731 0.231-0.425 0-0.831-0.044-1.237-0.119 0.838 2.606 3.263 4.506 6.131 4.563-2.25 1.762-5.075 2.813-8.156 2.813-0.531 0-1.050-0.031-1.569-0.094 2.913 1.869 6.362 2.95 10.069 2.95 12.075 0 18.681-10.006 18.681-18.681 0-0.287-0.006-0.569-0.019-0.85 1.281-0.919 2.394-2.075 3.275-3.394z"></path>
</symbol>
<symbol id="icon-linkedin2" viewBox="0 0 32 32">
<path d="M12 12h5.535v2.837h0.079c0.77-1.381 2.655-2.837 5.464-2.837 5.842 0 6.922 3.637 6.922 8.367v9.633h-5.769v-8.54c0-2.037-0.042-4.657-3.001-4.657-3.005 0-3.463 2.218-3.463 4.509v8.688h-5.767v-18z"></path>
<path d="M2 12h6v18h-6v-18z"></path>
<path d="M8 7c0 1.657-1.343 3-3 3s-3-1.343-3-3c0-1.657 1.343-3 3-3s3 1.343 3 3z"></path>
</symbol>
</defs>
</svg>
